<svg xmlns="http://www.w3.org/2000/svg" width="13" height="13" viewBox="0 0 13 13"><path d="M3,1 4,1 4,2 3,2 M4,1 5,1 5,2 4,2 M5,1 6,1 6,2 5,2 M5,2 6,2 6,3 5,3 M5,3 6,3 6,4 5,4 M4,3 5,3 5,4 4,4 M3,3 4,3 4,4 3,4 M5,4 6,4 6,5 5,5 M5,5 6,5 6,6 5,6 M4,5 5,5 5,6 4,6 M3,5 4,5 4,6 3,6 M7,5 8,5 8,6 7,6 M7,4 8,4 8,5 7,5 M7,3 8,3 8,4 7,4 M7,2 8,2 8,3 7,3 M8,2 9,2 9,3 8,3 M8,1 9,1 9,2 8,2 M9,2 10,2 10,3 9,3 M9,3 10,3 10,4 9,4 M9,4 10,4 10,5 9,5 M9,5 10,5 10,6 9,6 M8,4 9,4 9,5 8,5 M3,7 4,7 4,8 3,8 M4,7 5,7 5,8 4,8 M4,9 5,9 5,10 4,10 M3,10 4,10 4,11 3,11 M5,8 6,8 6,9 5,9 M3,11 4,11 4,12 3,12 M4,11 5,11 5,12 4,12 M5,11 6,11 6,12 5,12 M7,7 8,7 8,8 7,8 M8,7 9,7 9,8 8,8 M9,7 10,7 10,8 9,8 M9,8 10,8 10,9 9,9 M9,9 10,9 10,10 9,10 M9,10 10,10 10,11 9,11 M9,11 10,11 10,12 9,12 M8,11 9,11 9,12 8,12 M7,11 8,11 8,12 7,12 M8,9 9,9 9,10 8,10 M7,9 8,9 8,10 7,10 M7,8 8,8 8,9 7,9 " fill="#ffffff"></path></svg>