<svg xmlns="http://www.w3.org/2000/svg" viewBox="0 0 128 128" height="500" width="500">
    <path fill="#FFFFFF" d="M112.956.708c-7.912 0-14.335 6.424-14.335 14.336s6.424 14.335 14.335 14.335 14.335-6.41 14.335-14.335c0-7.912-6.424-14.336-14.335-14.336zM64 15.058c-27.02 0-48.956 21.935-48.956 48.955S36.979 112.97 64 112.97c27.02 0 48.956-21.935 48.956-48.956 0-27.02-21.936-48.956-48.956-48.956z"></path><path d="M84.285 29.392c-7.91 0-14.335 6.424-14.335 14.335s6.424 14.336 14.335 14.336 14.336-6.424 14.336-14.336-6.424-14.335-14.335-14.335zM30.773 56.36v32.119h19.961v-3.611H34.87V56.359Zm57.584 8.37c-3.354 0-6.126.975-7.668 2.692-1.055 1.19-1.488 2.516-1.582 4.801h3.705c.311-2.826 1.988-4.098 5.423-4.098 3.3 0 5.153 1.231 5.153 3.435v.974c0 1.542-.92 2.205-3.827 2.556-5.193.663-5.991.839-7.398 1.407-2.69 1.095-4.057 3.164-4.057 6.166 0 4.193 2.908 6.83 7.574 6.83 2.907 0 5.247-1.014 7.843-3.395.257 2.34 1.407 3.395 3.787 3.395.757 0 1.325-.081 2.515-.392v-2.773a2.917 2.917 0 0 1-.798.095c-1.284 0-1.988-.663-1.988-1.812V71.032c0-4.098-3.002-6.302-8.682-6.302zm-33.742.664V83.19c0 3.84 2.867 6.302 7.357 6.302 3.395 0 5.545-1.19 7.709-4.233v3.219h3.3V65.393h-3.652v13.09c0 4.72-2.475 7.804-6.302 7.804-2.907 0-4.76-1.772-4.76-4.544v-16.35Zm38.773 11.67v4.139c0 1.244-.365 1.988-1.46 3.002-1.502 1.366-3.3 2.07-5.464 2.07-2.867 0-4.544-1.367-4.544-3.706 0-2.42 1.636-3.665 5.558-4.233 3.881-.528 4.68-.703 5.91-1.271z"></path>
</svg>
          
